<mxfile host="app.diagrams.net" modified="2023-03-16T02:06:30.016Z" agent="5.0 (Windows NT 10.0; Win64; x64) AppleWebKit/537.36 (KHTML, like Gecko) Chrome/111.0.0.0 Safari/537.36" etag="Uylwijmt5Xz7FiA7zbLe" version="21.0.4" type="github">
  <diagram id="C5RBs43oDa-KdzZeNtuy" name="Page-1">
    <mxGraphModel dx="1221" dy="760" grid="1" gridSize="10" guides="1" tooltips="1" connect="1" arrows="1" fold="1" page="1" pageScale="1" pageWidth="2336" pageHeight="1654" math="0" shadow="0">
      <root>
        <object label="" id="WIyWlLk6GJQsqaUBKTNV-0">
          <mxCell />
        </object>
        <mxCell id="WIyWlLk6GJQsqaUBKTNV-1" parent="WIyWlLk6GJQsqaUBKTNV-0" />
        <mxCell id="8QUE6pykd3sV3vfoaq_Z-59" value="&amp;lt;&amp;lt;interface&amp;gt;&amp;gt;&lt;br&gt;&lt;b&gt;ComeToWorkBehavior&lt;/b&gt;" style="swimlane;fontStyle=0;childLayout=stackLayout;horizontal=1;startSize=30;horizontalStack=0;resizeParent=1;resizeParentMax=0;resizeLast=0;collapsible=1;marginBottom=0;whiteSpace=wrap;html=1;" vertex="1" parent="WIyWlLk6GJQsqaUBKTNV-1">
          <mxGeometry x="1072" y="570" width="140" height="60" as="geometry" />
        </mxCell>
        <mxCell id="8QUE6pykd3sV3vfoaq_Z-60" value="comeToWork()" style="text;strokeColor=none;fillColor=none;align=left;verticalAlign=middle;spacingLeft=4;spacingRight=4;overflow=hidden;points=[[0,0.5],[1,0.5]];portConstraint=eastwest;rotatable=0;whiteSpace=wrap;html=1;" vertex="1" parent="8QUE6pykd3sV3vfoaq_Z-59">
          <mxGeometry y="30" width="140" height="30" as="geometry" />
        </mxCell>
        <mxCell id="8QUE6pykd3sV3vfoaq_Z-62" value="ComeEarly" style="swimlane;fontStyle=0;childLayout=stackLayout;horizontal=1;startSize=30;horizontalStack=0;resizeParent=1;resizeParentMax=0;resizeLast=0;collapsible=1;marginBottom=0;whiteSpace=wrap;html=1;" vertex="1" parent="WIyWlLk6GJQsqaUBKTNV-1">
          <mxGeometry x="900" y="745" width="140" height="60" as="geometry" />
        </mxCell>
        <mxCell id="8QUE6pykd3sV3vfoaq_Z-63" value="comeToWork()" style="text;strokeColor=none;fillColor=none;align=left;verticalAlign=middle;spacingLeft=4;spacingRight=4;overflow=hidden;points=[[0,0.5],[1,0.5]];portConstraint=eastwest;rotatable=0;whiteSpace=wrap;html=1;" vertex="1" parent="8QUE6pykd3sV3vfoaq_Z-62">
          <mxGeometry y="30" width="140" height="30" as="geometry" />
        </mxCell>
        <mxCell id="8QUE6pykd3sV3vfoaq_Z-65" value="ComeOnTime" style="swimlane;fontStyle=0;childLayout=stackLayout;horizontal=1;startSize=30;horizontalStack=0;resizeParent=1;resizeParentMax=0;resizeLast=0;collapsible=1;marginBottom=0;whiteSpace=wrap;html=1;" vertex="1" parent="WIyWlLk6GJQsqaUBKTNV-1">
          <mxGeometry x="1080" y="745" width="140" height="60" as="geometry" />
        </mxCell>
        <mxCell id="8QUE6pykd3sV3vfoaq_Z-66" value="comeToWork()" style="text;strokeColor=none;fillColor=none;align=left;verticalAlign=middle;spacingLeft=4;spacingRight=4;overflow=hidden;points=[[0,0.5],[1,0.5]];portConstraint=eastwest;rotatable=0;whiteSpace=wrap;html=1;" vertex="1" parent="8QUE6pykd3sV3vfoaq_Z-65">
          <mxGeometry y="30" width="140" height="30" as="geometry" />
        </mxCell>
        <mxCell id="8QUE6pykd3sV3vfoaq_Z-74" value="&amp;lt;&amp;lt;interface&amp;gt;&amp;gt;&lt;br&gt;&lt;b&gt;WorkBehavior&lt;/b&gt;" style="swimlane;fontStyle=0;childLayout=stackLayout;horizontal=1;startSize=30;horizontalStack=0;resizeParent=1;resizeParentMax=0;resizeLast=0;collapsible=1;marginBottom=0;whiteSpace=wrap;html=1;" vertex="1" parent="WIyWlLk6GJQsqaUBKTNV-1">
          <mxGeometry x="1622" y="570" width="140" height="60" as="geometry" />
        </mxCell>
        <mxCell id="8QUE6pykd3sV3vfoaq_Z-75" value="work()" style="text;strokeColor=none;fillColor=none;align=left;verticalAlign=middle;spacingLeft=4;spacingRight=4;overflow=hidden;points=[[0,0.5],[1,0.5]];portConstraint=eastwest;rotatable=0;whiteSpace=wrap;html=1;" vertex="1" parent="8QUE6pykd3sV3vfoaq_Z-74">
          <mxGeometry y="30" width="140" height="30" as="geometry" />
        </mxCell>
        <mxCell id="8QUE6pykd3sV3vfoaq_Z-78" value="workHard" style="swimlane;fontStyle=0;childLayout=stackLayout;horizontal=1;startSize=30;horizontalStack=0;resizeParent=1;resizeParentMax=0;resizeLast=0;collapsible=1;marginBottom=0;whiteSpace=wrap;html=1;" vertex="1" parent="WIyWlLk6GJQsqaUBKTNV-1">
          <mxGeometry x="1462" y="745" width="140" height="60" as="geometry" />
        </mxCell>
        <mxCell id="8QUE6pykd3sV3vfoaq_Z-81" value="work()" style="text;strokeColor=none;fillColor=none;align=left;verticalAlign=middle;spacingLeft=4;spacingRight=4;overflow=hidden;points=[[0,0.5],[1,0.5]];portConstraint=eastwest;rotatable=0;whiteSpace=wrap;html=1;" vertex="1" parent="8QUE6pykd3sV3vfoaq_Z-78">
          <mxGeometry y="30" width="140" height="30" as="geometry" />
        </mxCell>
        <mxCell id="8QUE6pykd3sV3vfoaq_Z-82" value="workNoWay" style="swimlane;fontStyle=0;childLayout=stackLayout;horizontal=1;startSize=30;horizontalStack=0;resizeParent=1;resizeParentMax=0;resizeLast=0;collapsible=1;marginBottom=0;whiteSpace=wrap;html=1;" vertex="1" parent="WIyWlLk6GJQsqaUBKTNV-1">
          <mxGeometry x="1622" y="744" width="140" height="60" as="geometry" />
        </mxCell>
        <mxCell id="8QUE6pykd3sV3vfoaq_Z-83" value="work()" style="text;strokeColor=none;fillColor=none;align=left;verticalAlign=middle;spacingLeft=4;spacingRight=4;overflow=hidden;points=[[0,0.5],[1,0.5]];portConstraint=eastwest;rotatable=0;whiteSpace=wrap;html=1;" vertex="1" parent="8QUE6pykd3sV3vfoaq_Z-82">
          <mxGeometry y="30" width="140" height="30" as="geometry" />
        </mxCell>
        <mxCell id="8QUE6pykd3sV3vfoaq_Z-84" value="workOvertime" style="swimlane;fontStyle=0;childLayout=stackLayout;horizontal=1;startSize=30;horizontalStack=0;resizeParent=1;resizeParentMax=0;resizeLast=0;collapsible=1;marginBottom=0;whiteSpace=wrap;html=1;" vertex="1" parent="WIyWlLk6GJQsqaUBKTNV-1">
          <mxGeometry x="1782" y="744" width="140" height="60" as="geometry" />
        </mxCell>
        <mxCell id="8QUE6pykd3sV3vfoaq_Z-85" value="work()" style="text;strokeColor=none;fillColor=none;align=left;verticalAlign=middle;spacingLeft=4;spacingRight=4;overflow=hidden;points=[[0,0.5],[1,0.5]];portConstraint=eastwest;rotatable=0;whiteSpace=wrap;html=1;" vertex="1" parent="8QUE6pykd3sV3vfoaq_Z-84">
          <mxGeometry y="30" width="140" height="30" as="geometry" />
        </mxCell>
        <mxCell id="8QUE6pykd3sV3vfoaq_Z-86" value="" style="endArrow=block;endSize=10;endFill=0;shadow=0;strokeWidth=1;rounded=0;elbow=vertical;dashed=1;entryX=0.5;entryY=1;entryDx=0;entryDy=0;exitX=0.5;exitY=0;exitDx=0;exitDy=0;" edge="1" parent="WIyWlLk6GJQsqaUBKTNV-1" source="8QUE6pykd3sV3vfoaq_Z-82" target="8QUE6pykd3sV3vfoaq_Z-74">
          <mxGeometry width="160" relative="1" as="geometry">
            <mxPoint x="1692" y="735" as="sourcePoint" />
            <mxPoint x="1702.6799999999998" y="614.9999999999999" as="targetPoint" />
          </mxGeometry>
        </mxCell>
        <mxCell id="8QUE6pykd3sV3vfoaq_Z-87" value="" style="endArrow=block;endSize=10;endFill=0;shadow=0;strokeWidth=1;rounded=0;elbow=vertical;dashed=1;entryX=0.419;entryY=0.974;entryDx=0;entryDy=0;exitX=0.5;exitY=0;exitDx=0;exitDy=0;entryPerimeter=0;" edge="1" parent="WIyWlLk6GJQsqaUBKTNV-1" source="8QUE6pykd3sV3vfoaq_Z-78" target="8QUE6pykd3sV3vfoaq_Z-75">
          <mxGeometry width="160" relative="1" as="geometry">
            <mxPoint x="1702" y="754" as="sourcePoint" />
            <mxPoint x="1702" y="640" as="targetPoint" />
          </mxGeometry>
        </mxCell>
        <mxCell id="8QUE6pykd3sV3vfoaq_Z-88" value="" style="endArrow=block;endSize=10;endFill=0;shadow=0;strokeWidth=1;rounded=0;elbow=vertical;dashed=1;entryX=0.602;entryY=1.03;entryDx=0;entryDy=0;exitX=0.5;exitY=0;exitDx=0;exitDy=0;entryPerimeter=0;" edge="1" parent="WIyWlLk6GJQsqaUBKTNV-1" source="8QUE6pykd3sV3vfoaq_Z-84" target="8QUE6pykd3sV3vfoaq_Z-75">
          <mxGeometry width="160" relative="1" as="geometry">
            <mxPoint x="1542" y="755" as="sourcePoint" />
            <mxPoint x="1691" y="639" as="targetPoint" />
          </mxGeometry>
        </mxCell>
        <mxCell id="8QUE6pykd3sV3vfoaq_Z-94" value="ComeLate" style="swimlane;fontStyle=0;childLayout=stackLayout;horizontal=1;startSize=30;horizontalStack=0;resizeParent=1;resizeParentMax=0;resizeLast=0;collapsible=1;marginBottom=0;whiteSpace=wrap;html=1;" vertex="1" parent="WIyWlLk6GJQsqaUBKTNV-1">
          <mxGeometry x="1252" y="745" width="140" height="60" as="geometry" />
        </mxCell>
        <mxCell id="8QUE6pykd3sV3vfoaq_Z-95" value="comeToWork()" style="text;strokeColor=none;fillColor=none;align=left;verticalAlign=middle;spacingLeft=4;spacingRight=4;overflow=hidden;points=[[0,0.5],[1,0.5]];portConstraint=eastwest;rotatable=0;whiteSpace=wrap;html=1;" vertex="1" parent="8QUE6pykd3sV3vfoaq_Z-94">
          <mxGeometry y="30" width="140" height="30" as="geometry" />
        </mxCell>
        <mxCell id="8QUE6pykd3sV3vfoaq_Z-96" value="" style="endArrow=block;endSize=10;endFill=0;shadow=0;strokeWidth=1;rounded=0;elbow=vertical;dashed=1;entryX=0.5;entryY=1;entryDx=0;entryDy=0;exitX=0.5;exitY=0;exitDx=0;exitDy=0;" edge="1" parent="WIyWlLk6GJQsqaUBKTNV-1">
          <mxGeometry width="160" relative="1" as="geometry">
            <mxPoint x="1142" y="745" as="sourcePoint" />
            <mxPoint x="1142" y="631" as="targetPoint" />
          </mxGeometry>
        </mxCell>
        <mxCell id="8QUE6pykd3sV3vfoaq_Z-97" value="" style="endArrow=block;endSize=10;endFill=0;shadow=0;strokeWidth=1;rounded=0;elbow=vertical;dashed=1;entryX=0.419;entryY=0.974;entryDx=0;entryDy=0;exitX=0.5;exitY=0;exitDx=0;exitDy=0;entryPerimeter=0;" edge="1" parent="WIyWlLk6GJQsqaUBKTNV-1">
          <mxGeometry width="160" relative="1" as="geometry">
            <mxPoint x="982" y="746" as="sourcePoint" />
            <mxPoint x="1131" y="630" as="targetPoint" />
          </mxGeometry>
        </mxCell>
        <mxCell id="8QUE6pykd3sV3vfoaq_Z-98" value="" style="endArrow=block;endSize=10;endFill=0;shadow=0;strokeWidth=1;rounded=0;elbow=vertical;dashed=1;entryX=0.602;entryY=1.03;entryDx=0;entryDy=0;exitX=0.5;exitY=0;exitDx=0;exitDy=0;entryPerimeter=0;" edge="1" parent="WIyWlLk6GJQsqaUBKTNV-1">
          <mxGeometry width="160" relative="1" as="geometry">
            <mxPoint x="1302" y="745" as="sourcePoint" />
            <mxPoint x="1156" y="632" as="targetPoint" />
          </mxGeometry>
        </mxCell>
        <mxCell id="8QUE6pykd3sV3vfoaq_Z-110" value="&amp;lt;&amp;lt;abstract class&amp;gt;&amp;gt;&lt;br&gt;&lt;b&gt;Company&lt;/b&gt;" style="swimlane;fontStyle=0;childLayout=stackLayout;horizontal=1;startSize=30;horizontalStack=0;resizeParent=1;resizeParentMax=0;resizeLast=0;collapsible=1;marginBottom=0;whiteSpace=wrap;html=1;" vertex="1" parent="WIyWlLk6GJQsqaUBKTNV-1">
          <mxGeometry x="1140" y="329" width="140" height="90" as="geometry" />
        </mxCell>
        <mxCell id="8QUE6pykd3sV3vfoaq_Z-113" value="domain" style="text;strokeColor=none;fillColor=none;align=left;verticalAlign=middle;spacingLeft=4;spacingRight=4;overflow=hidden;points=[[0,0.5],[1,0.5]];portConstraint=eastwest;rotatable=0;whiteSpace=wrap;html=1;" vertex="1" parent="8QUE6pykd3sV3vfoaq_Z-110">
          <mxGeometry y="30" width="140" height="30" as="geometry" />
        </mxCell>
        <mxCell id="8QUE6pykd3sV3vfoaq_Z-111" value="name" style="text;strokeColor=none;fillColor=none;align=left;verticalAlign=middle;spacingLeft=4;spacingRight=4;overflow=hidden;points=[[0,0.5],[1,0.5]];portConstraint=eastwest;rotatable=0;whiteSpace=wrap;html=1;" vertex="1" parent="8QUE6pykd3sV3vfoaq_Z-110">
          <mxGeometry y="60" width="140" height="30" as="geometry" />
        </mxCell>
        <mxCell id="8QUE6pykd3sV3vfoaq_Z-115" value="&amp;lt;&amp;lt;abstract class&amp;gt;&amp;gt;&lt;br&gt;&lt;b&gt;Employee&lt;/b&gt;" style="swimlane;fontStyle=0;childLayout=stackLayout;horizontal=1;startSize=30;horizontalStack=0;resizeParent=1;resizeParentMax=0;resizeLast=0;collapsible=1;marginBottom=0;whiteSpace=wrap;html=1;" vertex="1" parent="WIyWlLk6GJQsqaUBKTNV-1">
          <mxGeometry x="1366" y="270" width="140" height="210" as="geometry" />
        </mxCell>
        <mxCell id="8QUE6pykd3sV3vfoaq_Z-116" value="name" style="text;strokeColor=none;fillColor=none;align=left;verticalAlign=middle;spacingLeft=4;spacingRight=4;overflow=hidden;points=[[0,0.5],[1,0.5]];portConstraint=eastwest;rotatable=0;whiteSpace=wrap;html=1;" vertex="1" parent="8QUE6pykd3sV3vfoaq_Z-115">
          <mxGeometry y="30" width="140" height="30" as="geometry" />
        </mxCell>
        <mxCell id="8QUE6pykd3sV3vfoaq_Z-121" value="company" style="text;strokeColor=none;fillColor=none;align=left;verticalAlign=middle;spacingLeft=4;spacingRight=4;overflow=hidden;points=[[0,0.5],[1,0.5]];portConstraint=eastwest;rotatable=0;whiteSpace=wrap;html=1;" vertex="1" parent="8QUE6pykd3sV3vfoaq_Z-115">
          <mxGeometry y="60" width="140" height="30" as="geometry" />
        </mxCell>
        <mxCell id="8QUE6pykd3sV3vfoaq_Z-117" value="department" style="text;strokeColor=none;fillColor=none;align=left;verticalAlign=middle;spacingLeft=4;spacingRight=4;overflow=hidden;points=[[0,0.5],[1,0.5]];portConstraint=eastwest;rotatable=0;whiteSpace=wrap;html=1;" vertex="1" parent="8QUE6pykd3sV3vfoaq_Z-115">
          <mxGeometry y="90" width="140" height="30" as="geometry" />
        </mxCell>
        <mxCell id="8QUE6pykd3sV3vfoaq_Z-120" value="position" style="text;strokeColor=none;fillColor=none;align=left;verticalAlign=middle;spacingLeft=4;spacingRight=4;overflow=hidden;points=[[0,0.5],[1,0.5]];portConstraint=eastwest;rotatable=0;whiteSpace=wrap;html=1;" vertex="1" parent="8QUE6pykd3sV3vfoaq_Z-115">
          <mxGeometry y="120" width="140" height="30" as="geometry" />
        </mxCell>
        <mxCell id="8QUE6pykd3sV3vfoaq_Z-119" value="CommuteBehavior" style="text;strokeColor=none;fillColor=none;align=left;verticalAlign=middle;spacingLeft=4;spacingRight=4;overflow=hidden;points=[[0,0.5],[1,0.5]];portConstraint=eastwest;rotatable=0;whiteSpace=wrap;html=1;" vertex="1" parent="8QUE6pykd3sV3vfoaq_Z-115">
          <mxGeometry y="150" width="140" height="30" as="geometry" />
        </mxCell>
        <mxCell id="8QUE6pykd3sV3vfoaq_Z-118" value="WorkBehavior" style="text;strokeColor=none;fillColor=none;align=left;verticalAlign=middle;spacingLeft=4;spacingRight=4;overflow=hidden;points=[[0,0.5],[1,0.5]];portConstraint=eastwest;rotatable=0;whiteSpace=wrap;html=1;" vertex="1" parent="8QUE6pykd3sV3vfoaq_Z-115">
          <mxGeometry y="180" width="140" height="30" as="geometry" />
        </mxCell>
        <mxCell id="8QUE6pykd3sV3vfoaq_Z-124" value="" style="endArrow=classic;html=1;rounded=0;exitX=0;exitY=0.5;exitDx=0;exitDy=0;entryX=0.56;entryY=-0.067;entryDx=0;entryDy=0;entryPerimeter=0;" edge="1" parent="WIyWlLk6GJQsqaUBKTNV-1" source="8QUE6pykd3sV3vfoaq_Z-119" target="8QUE6pykd3sV3vfoaq_Z-59">
          <mxGeometry width="50" height="50" relative="1" as="geometry">
            <mxPoint x="1376" y="355" as="sourcePoint" />
            <mxPoint x="1290" y="353" as="targetPoint" />
          </mxGeometry>
        </mxCell>
        <mxCell id="8QUE6pykd3sV3vfoaq_Z-125" value="" style="endArrow=none;html=1;rounded=0;entryX=0;entryY=0.5;entryDx=0;entryDy=0;exitX=1.01;exitY=0.17;exitDx=0;exitDy=0;exitPerimeter=0;" edge="1" parent="WIyWlLk6GJQsqaUBKTNV-1" source="8QUE6pykd3sV3vfoaq_Z-110" target="8QUE6pykd3sV3vfoaq_Z-121">
          <mxGeometry width="50" height="50" relative="1" as="geometry">
            <mxPoint x="1210" y="590" as="sourcePoint" />
            <mxPoint x="1260" y="540" as="targetPoint" />
          </mxGeometry>
        </mxCell>
        <mxCell id="8QUE6pykd3sV3vfoaq_Z-126" value="*" style="text;html=1;align=center;verticalAlign=middle;resizable=0;points=[];autosize=1;strokeColor=none;fillColor=none;" vertex="1" parent="WIyWlLk6GJQsqaUBKTNV-1">
          <mxGeometry x="1344" y="327" width="30" height="30" as="geometry" />
        </mxCell>
        <mxCell id="8QUE6pykd3sV3vfoaq_Z-127" value="1" style="text;html=1;align=center;verticalAlign=middle;resizable=0;points=[];autosize=1;strokeColor=none;fillColor=none;" vertex="1" parent="WIyWlLk6GJQsqaUBKTNV-1">
          <mxGeometry x="1272" y="322" width="30" height="30" as="geometry" />
        </mxCell>
        <mxCell id="8QUE6pykd3sV3vfoaq_Z-128" value="" style="endArrow=classic;html=1;rounded=0;exitX=1;exitY=0.5;exitDx=0;exitDy=0;entryX=0.415;entryY=-0.073;entryDx=0;entryDy=0;entryPerimeter=0;" edge="1" parent="WIyWlLk6GJQsqaUBKTNV-1" source="8QUE6pykd3sV3vfoaq_Z-118" target="8QUE6pykd3sV3vfoaq_Z-74">
          <mxGeometry width="50" height="50" relative="1" as="geometry">
            <mxPoint x="1376" y="445" as="sourcePoint" />
            <mxPoint x="1680" y="560" as="targetPoint" />
          </mxGeometry>
        </mxCell>
      </root>
    </mxGraphModel>
  </diagram>
</mxfile>
